# xmcd CD database file
#
# Track frame offsets:
#	150
#	6640
#	17724
#	32682
#	40341
#	56036
#	68791
#	81340
#	90536
#	103819
#	117097
#	125725
#
# Disc length: 1700 seconds
#
# Revision: 1
# Processed by: cddbd v1.5.2PL0 Copyright (c) Steve Scherf et al.
# Submitted via: CDex 1.40Beta4
#
DISCID=a306a20c
DTITLE=Alvin Crow - White Trash Opera
DYEAR=2006
DGENRE=Country
TTITLE0=Dixe (dog) and Charlie Edwards
TTITLE1=Boom Town
TTITLE2=Thick and Thin
TTITLE3=The Good Life in Texas
TTITLE4=Trailer on the Edge of Town
TTITLE5=Free at Last (Male)
TTITLE6=Free at Last (Female)
TTITLE7=Yesterday's Oatmeal
TTITLE8=This Old Bar Room
TTITLE9=Can't Let You Say Good-Bye
TTITLE10=The Last Day of My Life
TTITLE11=Free at Last (reprise)
EXTD=YEAR: 2006 ID3G:   2
EXTT0=
EXTT1=
EXTT2=
EXTT3=
EXTT4=
EXTT5=
EXTT6=
EXTT7=
EXTT8=
EXTT9=
EXTT10=
EXTT11=
PLAYORDER=
